<?xml version="1.0" encoding="UTF-8" standalone="no"?><!DOCTYPE svg PUBLIC "-//W3C//DTD SVG 1.1//EN" "http://www.w3.org/Graphics/SVG/1.1/DTD/svg11.dtd"><!-- Generated by graphviz version 2.40.1 (20161225.0304)
 --><!-- Title: solution Pages: 1 --><svg xmlns="http://www.w3.org/2000/svg" xmlns:xlink="http://www.w3.org/1999/xlink" width="286pt" height="133pt" viewBox="0.00 0.00 286.00 132.80">
<g id="graph0" class="graph" transform="scale(1 1) rotate(0) translate(4 128.8)">
<title>solution</title>
<polygon fill="#ffffff" stroke="transparent" points="-4,4 -4,-128.8 282,-128.8 282,4 -4,4"/>
<!-- 3 -->
<g id="node1" class="node">
<title>3</title>
<ellipse fill="none" stroke="#000000" cx="18" cy="-106.8" rx="18" ry="18"/>
<text text-anchor="middle" x="18" y="-102.6" font-family="Times,serif" font-size="14.00" fill="#000000">3</text>
</g>
<!-- 0 -->
<g id="node2" class="node">
<title>0</title>
<ellipse fill="none" stroke="#000000" cx="127" cy="-18" rx="18" ry="18"/>
<text text-anchor="middle" x="127" y="-13.8" font-family="Times,serif" font-size="14.00" fill="#000000">0</text>
</g>
<!-- 3&#45;&gt;0 -->
<g id="edge1" class="edge">
<title>3-&gt;0</title>
<path fill="none" stroke="#000000" d="M8.5818,-91.0642C3.159,-79.7521 -1.1606,-64.6742 6.7854,-54 17.8305,-39.1626 67.1136,-28.1697 99.0487,-22.4491"/>
<polygon fill="#000000" stroke="#000000" points="99.8721,-25.859 109.1335,-20.7133 98.6847,-18.9604 99.8721,-25.859"/>
<text text-anchor="middle" x="13.6073" y="-58.2" font-family="Times,serif" font-size="14.00" fill="#000000">1e</text>
</g>
<!-- 3&#45;&gt;0 -->
<g id="edge7" class="edge">
<title>3-&gt;0</title>
<path fill="none" stroke="#00ff00" d="M30.4455,-92.9892C40.8313,-81.8432 56.3106,-66.084 71.3394,-54 81.0901,-46.1599 92.5976,-38.4861 102.6111,-32.2514"/>
<polygon fill="#00ff00" stroke="#00ff00" points="104.5714,-35.1556 111.2939,-26.9667 100.932,-29.176 104.5714,-35.1556"/>
<text text-anchor="middle" x="80.3303" y="-58.2" font-family="Times,serif" font-size="14.00" fill="#000000">24!</text>
</g>
<!-- 4 -->
<g id="node3" class="node">
<title>4</title>
<ellipse fill="none" stroke="#000000" cx="84" cy="-106.8" rx="18" ry="18"/>
<text text-anchor="middle" x="84" y="-102.6" font-family="Times,serif" font-size="14.00" fill="#000000">4</text>
</g>
<!-- 4&#45;&gt;0 -->
<g id="edge2" class="edge">
<title>4-&gt;0</title>
<path fill="none" stroke="#000000" d="M88.0918,-89.1266C90.8977,-78.5978 95.138,-65.1564 100.7854,-54 103.1685,-49.2921 106.1442,-44.5357 109.2271,-40.0913"/>
<polygon fill="#000000" stroke="#000000" points="112.0551,-42.1536 115.1601,-32.024 106.4158,-38.0063 112.0551,-42.1536"/>
<text text-anchor="middle" x="110.1073" y="-58.2" font-family="Times,serif" font-size="14.00" fill="#000000">14e</text>
</g>
<!-- 7 -->
<g id="node4" class="node">
<title>7</title>
<ellipse fill="none" stroke="#000000" cx="145" cy="-106.8" rx="18" ry="18"/>
<text text-anchor="middle" x="145" y="-102.6" font-family="Times,serif" font-size="14.00" fill="#000000">7</text>
</g>
<!-- 7&#45;&gt;0 -->
<g id="edge3" class="edge">
<title>7-&gt;0</title>
<path fill="none" stroke="#000000" d="M135.7409,-91.2154C132.5808,-85.071 129.4312,-77.8144 127.7854,-70.8 125.9508,-62.9806 125.2799,-54.3294 125.191,-46.3315"/>
<polygon fill="#000000" stroke="#000000" points="128.6907,-46.3765 125.3606,-36.3187 121.6917,-46.2579 128.6907,-46.3765"/>
<text text-anchor="middle" x="133.6073" y="-58.2" font-family="Times,serif" font-size="14.00" fill="#000000">6e</text>
</g>
<!-- 7&#45;&gt;0 -->
<g id="edge6" class="edge">
<title>7-&gt;0</title>
<path fill="none" stroke="#000000" d="M144.9371,-88.5198C144.5736,-78.2629 143.5645,-65.2956 141,-54 140.2576,-50.7302 139.2712,-47.3644 138.1644,-44.0648"/>
<polygon fill="#000000" stroke="#000000" points="141.3808,-42.6728 134.6062,-34.5269 134.8223,-45.1195 141.3808,-42.6728"/>
<text text-anchor="middle" x="153.1073" y="-58.2" font-family="Times,serif" font-size="14.00" fill="#000000">22e</text>
</g>
<!-- 1 -->
<g id="node5" class="node">
<title>1</title>
<ellipse fill="none" stroke="#000000" cx="206" cy="-106.8" rx="18" ry="18"/>
<text text-anchor="middle" x="206" y="-102.6" font-family="Times,serif" font-size="14.00" fill="#000000">1</text>
</g>
<!-- 1&#45;&gt;0 -->
<g id="edge4" class="edge">
<title>1-&gt;0</title>
<path fill="none" stroke="#000000" d="M195.8395,-91.3782C188.3821,-80.4968 177.7236,-65.8133 167,-54 161.3484,-47.7741 154.7267,-41.4763 148.5156,-35.9267"/>
<polygon fill="#000000" stroke="#000000" points="150.812,-33.2854 140.9716,-29.359 146.2157,-38.565 150.812,-33.2854"/>
<text text-anchor="middle" x="186.6073" y="-58.2" font-family="Times,serif" font-size="14.00" fill="#000000">7e</text>
</g>
<!-- 5 -->
<g id="node6" class="node">
<title>5</title>
<ellipse fill="none" stroke="#000000" cx="260" cy="-106.8" rx="18" ry="18"/>
<text text-anchor="middle" x="260" y="-102.6" font-family="Times,serif" font-size="14.00" fill="#000000">5</text>
</g>
<!-- 5&#45;&gt;0 -->
<g id="edge5" class="edge">
<title>5-&gt;0</title>
<path fill="none" stroke="#000000" d="M246.6845,-94.124C234.3867,-82.7964 215.3071,-66.1591 197,-54 183.0764,-44.7523 166.4783,-36.1234 152.9399,-29.6331"/>
<polygon fill="#000000" stroke="#000000" points="154.2449,-26.3794 143.7045,-25.3068 151.2754,-32.7184 154.2449,-26.3794"/>
<text text-anchor="middle" x="228.1073" y="-58.2" font-family="Times,serif" font-size="14.00" fill="#000000">17e</text>
</g>
</g>
</svg>