<?xml version="1.0" encoding="UTF-8" standalone="no"?><!DOCTYPE svg PUBLIC "-//W3C//DTD SVG 1.1//EN" "http://www.w3.org/Graphics/SVG/1.1/DTD/svg11.dtd"><!-- Generated by graphviz version 2.40.1 (20161225.0304)
 --><!-- Title: solution Pages: 1 --><svg xmlns="http://www.w3.org/2000/svg" xmlns:xlink="http://www.w3.org/1999/xlink" width="2007pt" height="133pt" viewBox="0.00 0.00 2007.18 132.80">
<g id="graph0" class="graph" transform="scale(1 1) rotate(0) translate(4 128.8)">
<title>solution</title>
<polygon fill="#ffffff" stroke="transparent" points="-4,4 -4,-128.8 2003.1849,-128.8 2003.1849,4 -4,4"/>
<!-- 0 -->
<g id="node1" class="node">
<title>0</title>
<ellipse fill="none" stroke="#000000" cx="160.9703" cy="-106.8" rx="18" ry="18"/>
<text text-anchor="middle" x="160.9703" y="-102.6" font-family="Times,serif" font-size="14.00" fill="#000000">0</text>
</g>
<!-- 6 -->
<g id="node2" class="node">
<title>6</title>
<ellipse fill="none" stroke="#000000" cx="1012.9703" cy="-18" rx="18" ry="18"/>
<text text-anchor="middle" x="1012.9703" y="-13.8" font-family="Times,serif" font-size="14.00" fill="#000000">6</text>
</g>
<!-- 0&#45;&gt;6 -->
<g id="edge1" class="edge">
<title>0-&gt;6</title>
<path fill="none" stroke="#000000" d="M142.793,-105.4071C105.2037,-102.1097 20.988,-92.4242 3.7557,-70.8 -.8976,-64.9607 -1.4291,-59.373 3.7557,-54 21.2721,-35.8476 823.4043,-21.2306 984.8408,-18.4698"/>
<polygon fill="#000000" stroke="#000000" points="984.9976,-21.9677 994.9367,-18.2983 984.8787,-14.9687 984.9976,-21.9677"/>
<text text-anchor="middle" x="10.5776" y="-58.2" font-family="Times,serif" font-size="14.00" fill="#000000">0e</text>
</g>
<!-- 0&#45;&gt;6 -->
<g id="edge7" class="edge">
<title>0-&gt;6</title>
<path fill="none" stroke="#000000" d="M142.7706,-105.1998C101.6526,-100.9594 7.5809,-87.387 39.7557,-54 56.5839,-36.5378 825.3447,-21.4531 984.3687,-18.5163"/>
<polygon fill="#000000" stroke="#000000" points="984.8119,-22.0089 994.746,-18.326 984.6834,-15.0101 984.8119,-22.0089"/>
<text text-anchor="middle" x="46.5776" y="-58.2" font-family="Times,serif" font-size="14.00" fill="#000000">6e</text>
</g>
<!-- 0&#45;&gt;6 -->
<g id="edge13" class="edge">
<title>0-&gt;6</title>
<path fill="none" stroke="#000000" d="M143.3111,-103.0645C112.1037,-95.7388 52.5853,-78.0775 75.7557,-54 91.9159,-37.2072 829.1357,-21.6506 984.4409,-18.5563"/>
<polygon fill="#000000" stroke="#000000" points="984.6705,-22.0526 994.5993,-18.3552 984.5319,-15.054 984.6705,-22.0526"/>
<text text-anchor="middle" x="86.0776" y="-58.2" font-family="Times,serif" font-size="14.00" fill="#000000">12e</text>
</g>
<!-- 0&#45;&gt;6 -->
<g id="edge19" class="edge">
<title>0-&gt;6</title>
<path fill="none" stroke="#000000" d="M145.1996,-97.799C128.0853,-86.9513 104.9344,-68.389 118.7557,-54 149.4366,-22.0591 835.0282,-18.4572 984.4041,-18.0515"/>
<polygon fill="#000000" stroke="#000000" points="984.601,-21.5511 994.5924,-18.0266 984.5838,-14.5511 984.601,-21.5511"/>
<text text-anchor="middle" x="129.0776" y="-58.2" font-family="Times,serif" font-size="14.00" fill="#000000">18e</text>
</g>
<!-- 0&#45;&gt;6 -->
<g id="edge25" class="edge">
<title>0-&gt;6</title>
<path fill="none" stroke="#000000" d="M155.744,-89.518C153.4014,-77.9146 152.8693,-63.1333 161.7557,-54 191.0661,-23.8755 839.5393,-18.8645 984.4315,-18.12"/>
<polygon fill="#000000" stroke="#000000" points="984.7277,-21.6187 994.7105,-18.0701 984.6936,-14.6187 984.7277,-21.6187"/>
<text text-anchor="middle" x="172.0776" y="-58.2" font-family="Times,serif" font-size="14.00" fill="#000000">24e</text>
</g>
<!-- 0&#45;&gt;6 -->
<g id="edge31" class="edge">
<title>0-&gt;6</title>
<path fill="none" stroke="#000000" d="M169.3477,-90.7274C176.8062,-78.2689 188.9748,-61.8479 204.7557,-54 240.3414,-36.3031 844.9439,-21.7547 984.4249,-18.624"/>
<polygon fill="#000000" stroke="#000000" points="984.7934,-22.1167 994.713,-18.3949 984.6375,-15.1185 984.7934,-22.1167"/>
<text text-anchor="middle" x="215.0776" y="-58.2" font-family="Times,serif" font-size="14.00" fill="#000000">30e</text>
</g>
<!-- 0&#45;&gt;6 -->
<g id="edge37" class="edge">
<title>0-&gt;6</title>
<path fill="none" stroke="#000000" d="M177.0711,-98.4534C190.2104,-91.4746 209.1252,-81.0428 224.9703,-70.8 235.5367,-63.9696 235.899,-58.2098 247.7557,-54 318.1608,-29.0023 854.5111,-20.1522 984.6093,-18.3618"/>
<polygon fill="#000000" stroke="#000000" points="984.9758,-21.8573 994.9278,-18.223 984.8816,-14.8579 984.9758,-21.8573"/>
<text text-anchor="middle" x="258.0776" y="-58.2" font-family="Times,serif" font-size="14.00" fill="#000000">36e</text>
</g>
<!-- 0&#45;&gt;6 -->
<g id="edge43" class="edge">
<title>0-&gt;6</title>
<path fill="none" stroke="#000000" d="M178.6931,-102.6472C200.487,-97.1389 238.2415,-86.275 267.9703,-70.8 279.1307,-64.9906 278.9049,-58.2264 290.7557,-54 356.8985,-30.4115 859.1197,-20.556 984.6175,-18.447"/>
<polygon fill="#000000" stroke="#000000" points="984.9877,-21.9415 994.9286,-18.2771 984.8723,-14.9425 984.9877,-21.9415"/>
<text text-anchor="middle" x="301.0776" y="-58.2" font-family="Times,serif" font-size="14.00" fill="#000000">42e</text>
</g>
<!-- 0&#45;&gt;6 -->
<g id="edge49" class="edge">
<title>0-&gt;6</title>
<path fill="none" stroke="#000000" d="M178.7996,-103.5612C207.1875,-98.1735 264.228,-86.4016 310.9703,-70.8 328.7895,-64.8524 331.4712,-58.31 349.7557,-54 473.1841,-24.9058 874.0834,-19.2311 984.5565,-18.2098"/>
<polygon fill="#000000" stroke="#000000" points="984.9186,-21.7069 994.8879,-18.1203 984.8579,-14.7071 984.9186,-21.7069"/>
<text text-anchor="middle" x="360.0776" y="-58.2" font-family="Times,serif" font-size="14.00" fill="#000000">48e</text>
</g>
<!-- 1 -->
<g id="node3" class="node">
<title>1</title>
<ellipse fill="none" stroke="#000000" cx="533.9703" cy="-106.8" rx="18" ry="18"/>
<text text-anchor="middle" x="533.9703" y="-102.6" font-family="Times,serif" font-size="14.00" fill="#000000">1</text>
</g>
<!-- 1&#45;&gt;6 -->
<g id="edge2" class="edge">
<title>1-&gt;6</title>
<path fill="none" stroke="#000000" d="M515.793,-105.4071C478.2037,-102.1097 393.988,-92.4242 376.7557,-70.8 372.1024,-64.9607 371.6273,-59.4268 376.7557,-54 397.9173,-31.6072 864.1192,-20.9243 984.7037,-18.5297"/>
<polygon fill="#000000" stroke="#000000" points="985.0327,-22.024 994.9625,-18.3295 984.8961,-15.0253 985.0327,-22.024"/>
<text text-anchor="middle" x="383.5776" y="-58.2" font-family="Times,serif" font-size="14.00" fill="#000000">1e</text>
</g>
<!-- 1&#45;&gt;6 -->
<g id="edge8" class="edge">
<title>1-&gt;6</title>
<path fill="none" stroke="#000000" d="M515.822,-105.2487C474.815,-101.1142 380.9659,-87.7537 412.7557,-54 432.5813,-32.9497 867.8347,-21.3676 984.4458,-18.6351"/>
<polygon fill="#000000" stroke="#000000" points="984.7948,-22.1281 994.7114,-18.3982 984.6333,-15.1299 984.7948,-22.1281"/>
<text text-anchor="middle" x="419.5776" y="-58.2" font-family="Times,serif" font-size="14.00" fill="#000000">7e</text>
</g>
<!-- 1&#45;&gt;6 -->
<g id="edge14" class="edge">
<title>1-&gt;6</title>
<path fill="none" stroke="#000000" d="M515.8802,-103.0053C484.6409,-95.7019 426.0111,-78.2421 448.7557,-54 467.2791,-34.257 873.0326,-21.8031 984.7297,-18.7403"/>
<polygon fill="#000000" stroke="#000000" points="984.9831,-22.2348 994.8848,-18.4656 984.7938,-15.2374 984.9831,-22.2348"/>
<text text-anchor="middle" x="459.0776" y="-58.2" font-family="Times,serif" font-size="14.00" fill="#000000">13e</text>
</g>
<!-- 1&#45;&gt;6 -->
<g id="edge20" class="edge">
<title>1-&gt;6</title>
<path fill="none" stroke="#000000" d="M518.27,-97.8657C501.2251,-87.0836 478.1425,-68.586 491.7557,-54 508.6977,-35.8475 878.091,-22.4071 984.5155,-18.9011"/>
<polygon fill="#000000" stroke="#000000" points="984.9183,-22.3899 994.7991,-18.5664 984.6905,-15.3936 984.9183,-22.3899"/>
<text text-anchor="middle" x="502.0776" y="-58.2" font-family="Times,serif" font-size="14.00" fill="#000000">19e</text>
</g>
<!-- 1&#45;&gt;6 -->
<g id="edge26" class="edge">
<title>1-&gt;6</title>
<path fill="none" stroke="#000000" d="M528.7894,-89.3587C526.5327,-77.8348 526.0834,-63.2113 534.7557,-54 550.2616,-37.5303 884.1606,-23.0764 984.6237,-19.0876"/>
<polygon fill="#000000" stroke="#000000" points="985.0539,-22.5735 994.9088,-18.6836 984.7791,-15.5789 985.0539,-22.5735"/>
<text text-anchor="middle" x="545.0776" y="-58.2" font-family="Times,serif" font-size="14.00" fill="#000000">25e</text>
</g>
<!-- 1&#45;&gt;6 -->
<g id="edge32" class="edge">
<title>1-&gt;6</title>
<path fill="none" stroke="#000000" d="M542.4289,-90.8868C549.9345,-78.5208 562.1268,-62.1464 577.7557,-54 613.7326,-35.2474 893.81,-22.686 984.6374,-19.0726"/>
<polygon fill="#000000" stroke="#000000" points="984.8914,-22.5655 994.7466,-18.6765 984.6172,-15.5708 984.8914,-22.5655"/>
<text text-anchor="middle" x="588.0776" y="-58.2" font-family="Times,serif" font-size="14.00" fill="#000000">31e</text>
</g>
<!-- 1&#45;&gt;6 -->
<g id="edge38" class="edge">
<title>1-&gt;6</title>
<path fill="none" stroke="#000000" d="M550.0711,-98.4534C563.2104,-91.4746 582.1252,-81.0428 597.9703,-70.8 608.5367,-63.9696 608.9956,-58.4727 620.7557,-54 687.4437,-28.6369 906.0371,-20.7022 984.5625,-18.6355"/>
<polygon fill="#000000" stroke="#000000" points="984.7737,-22.1314 994.6827,-18.3816 984.5981,-15.1336 984.7737,-22.1314"/>
<text text-anchor="middle" x="631.0776" y="-58.2" font-family="Times,serif" font-size="14.00" fill="#000000">37e</text>
</g>
<!-- 1&#45;&gt;6 -->
<g id="edge44" class="edge">
<title>1-&gt;6</title>
<path fill="none" stroke="#000000" d="M551.6931,-102.6472C573.487,-97.1389 611.2415,-86.275 640.9703,-70.8 652.1307,-64.9906 652.0209,-58.5384 663.7557,-54 722.1513,-31.4157 911.7411,-21.8943 984.333,-19.0148"/>
<polygon fill="#000000" stroke="#000000" points="984.6954,-22.5036 994.554,-18.623 984.4272,-15.5088 984.6954,-22.5036"/>
<text text-anchor="middle" x="674.0776" y="-58.2" font-family="Times,serif" font-size="14.00" fill="#000000">43e</text>
</g>
<!-- 1&#45;&gt;6 -->
<g id="edge50" class="edge">
<title>1-&gt;6</title>
<path fill="none" stroke="#00ff00" d="M551.8454,-103.6956C580.296,-98.4922 637.4208,-86.968 683.9703,-70.8 700.7786,-64.962 703.1982,-58.8782 720.3097,-54 814.5305,-27.139 931.4432,-20.32 984.4574,-18.5889"/>
<polygon fill="#00ff00" stroke="#00ff00" points="984.8742,-22.0784 994.7691,-18.2914 984.6723,-15.0813 984.8742,-22.0784"/>
<text text-anchor="middle" x="730.3006" y="-58.2" font-family="Times,serif" font-size="14.00" fill="#000000">49!</text>
</g>
<!-- 2 -->
<g id="node4" class="node">
<title>2</title>
<ellipse fill="none" stroke="#000000" cx="883.9703" cy="-106.8" rx="18" ry="18"/>
<text text-anchor="middle" x="883.9703" y="-102.6" font-family="Times,serif" font-size="14.00" fill="#000000">2</text>
</g>
<!-- 2&#45;&gt;6 -->
<g id="edge3" class="edge">
<title>2-&gt;6</title>
<path fill="none" stroke="#000000" d="M865.964,-105.9821C821.9251,-103.3646 714.7804,-92.9185 748.7557,-54 764.1172,-36.4035 919.4765,-24.177 984.544,-19.7902"/>
<polygon fill="#000000" stroke="#000000" points="985.1377,-23.2587 994.8856,-19.1081 984.6769,-16.2739 985.1377,-23.2587"/>
<text text-anchor="middle" x="755.5776" y="-58.2" font-family="Times,serif" font-size="14.00" fill="#000000">2e</text>
</g>
<!-- 2&#45;&gt;6 -->
<g id="edge9" class="edge">
<title>2-&gt;6</title>
<path fill="none" stroke="#000000" d="M866.0804,-104.2495C831.2668,-98.5783 759.9094,-83.0729 784.7557,-54 797.6352,-38.9296 926.7218,-25.6662 984.8534,-20.4063"/>
<polygon fill="#000000" stroke="#000000" points="985.1873,-23.8906 994.8381,-19.5187 984.5674,-16.918 985.1873,-23.8906"/>
<text text-anchor="middle" x="791.5776" y="-58.2" font-family="Times,serif" font-size="14.00" fill="#000000">8e</text>
</g>
<!-- 2&#45;&gt;6 -->
<g id="edge15" class="edge">
<title>2-&gt;6</title>
<path fill="none" stroke="#000000" d="M866.6156,-100.9877C842.67,-92.0631 804.2246,-73.9147 820.7557,-54 841.2687,-29.2885 936.4429,-21.4401 984.7213,-19.0267"/>
<polygon fill="#000000" stroke="#000000" points="984.9874,-22.5184 994.818,-18.5675 984.6692,-15.5256 984.9874,-22.5184"/>
<text text-anchor="middle" x="831.0776" y="-58.2" font-family="Times,serif" font-size="14.00" fill="#000000">14e</text>
</g>
<!-- 2&#45;&gt;6 -->
<g id="edge21" class="edge">
<title>2-&gt;6</title>
<path fill="none" stroke="#000000" d="M871.7582,-93.0889C863.1528,-81.7068 854.6471,-65.5675 863.7557,-54 878.5238,-35.2452 945.7011,-25.1093 984.6998,-20.7142"/>
<polygon fill="#000000" stroke="#000000" points="985.3143,-24.1685 994.8852,-19.6244 984.5695,-17.2082 985.3143,-24.1685"/>
<text text-anchor="middle" x="874.0776" y="-58.2" font-family="Times,serif" font-size="14.00" fill="#000000">20e</text>
</g>
<!-- 2&#45;&gt;6 -->
<g id="edge27" class="edge">
<title>2-&gt;6</title>
<path fill="none" stroke="#000000" d="M887.7176,-88.9404C890.9687,-77.5325 896.7756,-63.2064 906.7557,-54 928.3501,-34.0799 961.3885,-25.1354 984.8782,-21.1486"/>
<polygon fill="#000000" stroke="#000000" points="985.5522,-24.5868 994.9234,-19.6441 984.5153,-17.664 985.5522,-24.5868"/>
<text text-anchor="middle" x="917.0776" y="-58.2" font-family="Times,serif" font-size="14.00" fill="#000000">26e</text>
</g>
<!-- 2&#45;&gt;6 -->
<g id="edge33" class="edge">
<title>2-&gt;6</title>
<path fill="none" stroke="#000000" d="M898.0536,-95.0609C914.1299,-81.739 939.5215,-60.9567 949.7557,-54 961.8711,-45.7646 975.9853,-37.6014 987.7997,-31.1357"/>
<polygon fill="#000000" stroke="#000000" points="989.5529,-34.1668 996.6995,-26.3453 986.2352,-28.003 989.5529,-34.1668"/>
<text text-anchor="middle" x="960.0776" y="-58.2" font-family="Times,serif" font-size="14.00" fill="#000000">32e</text>
</g>
<!-- 2&#45;&gt;6 -->
<g id="edge39" class="edge">
<title>2-&gt;6</title>
<path fill="none" stroke="#000000" d="M901.4066,-102.2527C919.7513,-96.8714 948.8384,-86.5958 969.9703,-70.8 980.5164,-62.917 990.025,-51.8993 997.4027,-41.9666"/>
<polygon fill="#000000" stroke="#000000" points="1000.3881,-43.8071 1003.3102,-33.6232 994.6751,-39.7621 1000.3881,-43.8071"/>
<text text-anchor="middle" x="998.0776" y="-58.2" font-family="Times,serif" font-size="14.00" fill="#000000">38e</text>
</g>
<!-- 2&#45;&gt;6 -->
<g id="edge45" class="edge">
<title>2-&gt;6</title>
<path fill="none" stroke="#000000" d="M901.929,-104.3901C933.8741,-99.6988 998.4924,-88.2458 1011.9703,-70.8 1017.4494,-63.7079 1018.89,-54.3337 1018.5775,-45.4541"/>
<polygon fill="#000000" stroke="#000000" points="1022.0505,-45.0117 1017.5421,-35.4239 1015.0875,-45.7305 1022.0505,-45.0117"/>
<text text-anchor="middle" x="1029.0776" y="-58.2" font-family="Times,serif" font-size="14.00" fill="#000000">44e</text>
</g>
<!-- 3 -->
<g id="node5" class="node">
<title>3</title>
<ellipse fill="none" stroke="#000000" cx="1213.9703" cy="-106.8" rx="18" ry="18"/>
<text text-anchor="middle" x="1213.9703" y="-102.6" font-family="Times,serif" font-size="14.00" fill="#000000">3</text>
</g>
<!-- 3&#45;&gt;6 -->
<g id="edge4" class="edge">
<title>3-&gt;6</title>
<path fill="none" stroke="#000000" d="M1196.0568,-104.4508C1169.3385,-100.4242 1117.9919,-90.6453 1078.7557,-70.8 1062.0324,-62.3415 1045.59,-49.1459 1033.3265,-38.0627"/>
<polygon fill="#000000" stroke="#000000" points="1035.6133,-35.4097 1025.9101,-31.1555 1030.8425,-40.5322 1035.6133,-35.4097"/>
<text text-anchor="middle" x="1085.5776" y="-58.2" font-family="Times,serif" font-size="14.00" fill="#000000">3e</text>
</g>
<!-- 3&#45;&gt;6 -->
<g id="edge10" class="edge">
<title>3-&gt;6</title>
<path fill="none" stroke="#000000" d="M1196.4792,-102.115C1176.1404,-96.2959 1141.8924,-85.3339 1114.7557,-70.8 1103.6644,-64.8597 1102.8168,-60.3764 1091.9703,-54 1075.1298,-44.0999 1055.0918,-34.9966 1039.4106,-28.421"/>
<polygon fill="#000000" stroke="#000000" points="1040.3925,-25.0407 1029.8124,-24.4819 1037.7348,-31.5166 1040.3925,-25.0407"/>
<text text-anchor="middle" x="1121.5776" y="-58.2" font-family="Times,serif" font-size="14.00" fill="#000000">9e</text>
</g>
<!-- 3&#45;&gt;6 -->
<g id="edge16" class="edge">
<title>3-&gt;6</title>
<path fill="none" stroke="#000000" d="M1197.8141,-98.2824C1184.8537,-91.2881 1166.3206,-80.9201 1150.7557,-70.8 1140.2074,-63.9416 1139.1916,-59.6909 1127.9703,-54 1099.6899,-39.6574 1064.5844,-29.6787 1040.6494,-23.9243"/>
<polygon fill="#000000" stroke="#000000" points="1041.3476,-20.4934 1030.8157,-21.6466 1039.7681,-27.3129 1041.3476,-20.4934"/>
<text text-anchor="middle" x="1161.0776" y="-58.2" font-family="Times,serif" font-size="14.00" fill="#000000">15e</text>
</g>
<!-- 3&#45;&gt;6 -->
<g id="edge22" class="edge">
<title>3-&gt;6</title>
<path fill="none" stroke="#000000" d="M1205.0974,-90.9753C1197.5574,-78.9982 1185.6334,-63.1051 1170.9703,-54 1149.4601,-40.6432 1080.0879,-28.2718 1040.7925,-22.1033"/>
<polygon fill="#000000" stroke="#000000" points="1041.2185,-18.6278 1030.8027,-20.5671 1040.1545,-25.5465 1041.2185,-18.6278"/>
<text text-anchor="middle" x="1200.0776" y="-58.2" font-family="Times,serif" font-size="14.00" fill="#000000">21e</text>
</g>
<!-- 3&#45;&gt;6 -->
<g id="edge28" class="edge">
<title>3-&gt;6</title>
<path fill="none" stroke="#000000" d="M1219.2441,-89.1741C1221.4708,-77.8648 1221.9709,-63.5608 1213.9703,-54 1192.2977,-28.1008 1091.5567,-20.8119 1041.4397,-18.7776"/>
<polygon fill="#000000" stroke="#000000" points="1041.3968,-15.2739 1031.2766,-18.4094 1041.1433,-22.2693 1041.3968,-15.2739"/>
<text text-anchor="middle" x="1231.0776" y="-58.2" font-family="Times,serif" font-size="14.00" fill="#000000">27e</text>
</g>
<!-- 3&#45;&gt;6 -->
<g id="edge34" class="edge">
<title>3-&gt;6</title>
<path fill="none" stroke="#000000" d="M1228.4473,-95.5425C1241.1604,-84.3116 1256.0362,-66.9154 1244.9703,-54 1231.8319,-38.6657 1100.0175,-25.5 1041.1306,-20.334"/>
<polygon fill="#000000" stroke="#000000" points="1041.2924,-16.8351 1031.0289,-19.4638 1040.6915,-23.8092 1041.2924,-16.8351"/>
<text text-anchor="middle" x="1259.0776" y="-58.2" font-family="Times,serif" font-size="14.00" fill="#000000">33e</text>
</g>
<!-- 3&#45;&gt;6 -->
<g id="edge40" class="edge">
<title>3-&gt;6</title>
<path fill="none" stroke="#000000" d="M1231.1587,-100.3787C1253.8468,-90.9752 1289.1316,-72.5532 1272.9703,-54 1257.9035,-36.7033 1105.6942,-24.3447 1041.3964,-19.8565"/>
<polygon fill="#000000" stroke="#000000" points="1041.3789,-16.3472 1031.1635,-19.1572 1040.9016,-23.3309 1041.3789,-16.3472"/>
<text text-anchor="middle" x="1288.0776" y="-58.2" font-family="Times,serif" font-size="14.00" fill="#000000">39e</text>
</g>
<!-- 3&#45;&gt;6 -->
<g id="edge46" class="edge">
<title>3-&gt;6</title>
<path fill="none" stroke="#000000" d="M1231.9662,-103.3576C1263.7926,-96.5202 1324.6149,-79.6404 1301.9703,-54 1284.8542,-34.6195 1110.5706,-23.2257 1041.217,-19.4291"/>
<polygon fill="#000000" stroke="#000000" points="1041.1997,-15.9233 1031.0273,-18.8849 1040.8264,-22.9133 1041.1997,-15.9233"/>
<text text-anchor="middle" x="1316.0776" y="-58.2" font-family="Times,serif" font-size="14.00" fill="#000000">45e</text>
</g>
<!-- 4 -->
<g id="node6" class="node">
<title>4</title>
<ellipse fill="none" stroke="#000000" cx="1550.9703" cy="-106.8" rx="18" ry="18"/>
<text text-anchor="middle" x="1550.9703" y="-102.6" font-family="Times,serif" font-size="14.00" fill="#000000">4</text>
</g>
<!-- 4&#45;&gt;6 -->
<g id="edge5" class="edge">
<title>4-&gt;6</title>
<path fill="none" stroke="#000000" d="M1533.224,-102.2649C1488.1293,-90.7887 1369.8924,-61.0091 1329.9703,-54 1224.1014,-35.4125 1096.5777,-24.3184 1041.0679,-20.0381"/>
<polygon fill="#000000" stroke="#000000" points="1041.1896,-16.5374 1030.9539,-19.2727 1040.6613,-23.5174 1041.1896,-16.5374"/>
<text text-anchor="middle" x="1411.5776" y="-58.2" font-family="Times,serif" font-size="14.00" fill="#000000">4e</text>
</g>
<!-- 4&#45;&gt;6 -->
<g id="edge11" class="edge">
<title>4-&gt;6</title>
<path fill="none" stroke="#000000" d="M1533.3793,-102.6244C1511.747,-97.0931 1474.2714,-86.2059 1444.7557,-70.8 1433.6018,-64.9781 1433.7387,-58.4507 1421.9703,-54 1352.084,-27.5698 1122.3807,-20.2855 1041.4763,-18.5139"/>
<polygon fill="#000000" stroke="#000000" points="1041.1502,-15.0065 1031.08,-18.2991 1041.0055,-22.005 1041.1502,-15.0065"/>
<text text-anchor="middle" x="1454.0776" y="-58.2" font-family="Times,serif" font-size="14.00" fill="#000000">10e</text>
</g>
<!-- 4&#45;&gt;6 -->
<g id="edge17" class="edge">
<title>4-&gt;6</title>
<path fill="none" stroke="#000000" d="M1534.8141,-98.2824C1521.8537,-91.2881 1503.3206,-80.9201 1487.7557,-70.8 1477.2074,-63.9416 1476.7571,-58.4017 1464.9703,-54 1386.7347,-24.7834 1127.6936,-19.2675 1041.2958,-18.2352"/>
<polygon fill="#000000" stroke="#000000" points="1041.2225,-14.7343 1031.1852,-18.1258 1041.1467,-21.7339 1041.2225,-14.7343"/>
<text text-anchor="middle" x="1497.0776" y="-58.2" font-family="Times,serif" font-size="14.00" fill="#000000">16e</text>
</g>
<!-- 4&#45;&gt;6 -->
<g id="edge23" class="edge">
<title>4-&gt;6</title>
<path fill="none" stroke="#000000" d="M1542.6058,-90.5992C1535.2751,-78.2429 1523.385,-62.0244 1507.9703,-54 1466.5326,-32.4287 1140.0604,-21.5698 1041.2252,-18.7542"/>
<polygon fill="#000000" stroke="#000000" points="1041.1906,-15.252 1031.0968,-18.4713 1040.9951,-22.2492 1041.1906,-15.252"/>
<text text-anchor="middle" x="1537.0776" y="-58.2" font-family="Times,serif" font-size="14.00" fill="#000000">22e</text>
</g>
<!-- 4&#45;&gt;6 -->
<g id="edge29" class="edge">
<title>4-&gt;6</title>
<path fill="none" stroke="#000000" d="M1556.4781,-89.3761C1558.9364,-77.86 1559.6115,-63.2387 1550.9703,-54 1533.4089,-35.2242 1149.7303,-22.1604 1041.2882,-18.8335"/>
<polygon fill="#000000" stroke="#000000" points="1041.2167,-15.3298 1031.1153,-18.5253 1041.0047,-22.3266 1041.2167,-15.3298"/>
<text text-anchor="middle" x="1567.0776" y="-58.2" font-family="Times,serif" font-size="14.00" fill="#000000">28e</text>
</g>
<!-- 4&#45;&gt;6 -->
<g id="edge35" class="edge">
<title>4-&gt;6</title>
<path fill="none" stroke="#000000" d="M1565.3329,-95.2826C1577.91,-83.8496 1592.5149,-66.2995 1580.9703,-54 1562.3189,-34.1291 1153.8459,-21.7678 1041.4002,-18.733"/>
<polygon fill="#000000" stroke="#000000" points="1041.2666,-15.2283 1031.177,-18.4609 1041.0803,-22.2258 1041.2666,-15.2283"/>
<text text-anchor="middle" x="1595.0776" y="-58.2" font-family="Times,serif" font-size="14.00" fill="#000000">34e</text>
</g>
<!-- 4&#45;&gt;6 -->
<g id="edge41" class="edge">
<title>4-&gt;6</title>
<path fill="none" stroke="#000000" d="M1568.09,-100.1599C1590.6644,-90.4904 1625.6779,-71.7472 1608.9703,-54 1589.2879,-33.0928 1157.0878,-21.406 1041.2947,-18.6428"/>
<polygon fill="#000000" stroke="#000000" points="1041.1807,-15.1393 1031.1012,-18.4033 1041.0161,-22.1373 1041.1807,-15.1393"/>
<text text-anchor="middle" x="1623.0776" y="-58.2" font-family="Times,serif" font-size="14.00" fill="#000000">40e</text>
</g>
<!-- 4&#45;&gt;6 -->
<g id="edge47" class="edge">
<title>4-&gt;6</title>
<path fill="none" stroke="#000000" d="M1568.7373,-103.1365C1600.1407,-95.9307 1660.0611,-78.4613 1636.9703,-54 1616.271,-32.0721 1160.9547,-21.0803 1041.4718,-18.567"/>
<polygon fill="#000000" stroke="#000000" points="1041.3572,-15.064 1031.2869,-18.3564 1041.2124,-22.0625 1041.3572,-15.064"/>
<text text-anchor="middle" x="1652.0776" y="-58.2" font-family="Times,serif" font-size="14.00" fill="#000000">46e</text>
</g>
<!-- 5 -->
<g id="node7" class="node">
<title>5</title>
<ellipse fill="none" stroke="#000000" cx="1887.9703" cy="-106.8" rx="18" ry="18"/>
<text text-anchor="middle" x="1887.9703" y="-102.6" font-family="Times,serif" font-size="14.00" fill="#000000">5</text>
</g>
<!-- 5&#45;&gt;6 -->
<g id="edge6" class="edge">
<title>5-&gt;6</title>
<path fill="none" stroke="#000000" d="M1870.4938,-102.2158C1825.4941,-90.4811 1706.3516,-59.8673 1665.9703,-54 1542.5399,-36.066 1150.0078,-22.3991 1041.1834,-18.8843"/>
<polygon fill="#000000" stroke="#000000" points="1041.1043,-15.38 1030.9974,-18.5583 1040.8803,-22.3764 1041.1043,-15.38"/>
<text text-anchor="middle" x="1747.5776" y="-58.2" font-family="Times,serif" font-size="14.00" fill="#000000">5e</text>
</g>
<!-- 5&#45;&gt;6 -->
<g id="edge12" class="edge">
<title>5-&gt;6</title>
<path fill="none" stroke="#000000" d="M1870.4307,-102.5246C1848.8503,-96.8928 1811.4269,-85.9044 1781.7557,-70.8 1770.2219,-64.9286 1770.2075,-58.2137 1757.9703,-54 1689.3403,-30.3683 1169.4416,-20.5163 1041.3985,-18.4342"/>
<polygon fill="#000000" stroke="#000000" points="1041.2769,-14.9319 1031.2223,-18.2718 1041.1651,-21.931 1041.2769,-14.9319"/>
<text text-anchor="middle" x="1791.0776" y="-58.2" font-family="Times,serif" font-size="14.00" fill="#000000">11e</text>
</g>
<!-- 5&#45;&gt;6 -->
<g id="edge18" class="edge">
<title>5-&gt;6</title>
<path fill="none" stroke="#000000" d="M1871.8141,-98.2824C1858.8537,-91.2881 1840.3206,-80.9201 1824.7557,-70.8 1814.2074,-63.9416 1813.83,-58.2014 1801.9703,-54 1729.2118,-28.2246 1174.0411,-19.9406 1041.3779,-18.3191"/>
<polygon fill="#000000" stroke="#000000" points="1041.2523,-14.8175 1031.2113,-18.1979 1041.1688,-21.817 1041.2523,-14.8175"/>
<text text-anchor="middle" x="1834.0776" y="-58.2" font-family="Times,serif" font-size="14.00" fill="#000000">17e</text>
</g>
<!-- 5&#45;&gt;6 -->
<g id="edge24" class="edge">
<title>5-&gt;6</title>
<path fill="none" stroke="#000000" d="M1879.8172,-90.7287C1872.5354,-78.271 1860.6067,-61.8504 1844.9703,-54 1808.2936,-35.5862 1182.0239,-21.5135 1041.0135,-18.5694"/>
<polygon fill="#000000" stroke="#000000" points="1041.0701,-15.0699 1030.9997,-18.362 1040.9251,-22.0684 1041.0701,-15.0699"/>
<text text-anchor="middle" x="1875.0776" y="-58.2" font-family="Times,serif" font-size="14.00" fill="#000000">23e</text>
</g>
<!-- 5&#45;&gt;6 -->
<g id="edge30" class="edge">
<title>5-&gt;6</title>
<path fill="none" stroke="#000000" d="M1893.4988,-89.5554C1896.0347,-77.9692 1896.7929,-63.193 1887.9703,-54 1857.9935,-22.7645 1188.5259,-18.6128 1041.394,-18.0772"/>
<polygon fill="#000000" stroke="#000000" points="1041.3594,-14.5772 1031.3476,-18.0434 1041.3357,-21.5771 1041.3594,-14.5772"/>
<text text-anchor="middle" x="1904.0776" y="-58.2" font-family="Times,serif" font-size="14.00" fill="#000000">29e</text>
</g>
<!-- 5&#45;&gt;6 -->
<g id="edge36" class="edge">
<title>5-&gt;6</title>
<path fill="none" stroke="#000000" d="M1902.3936,-95.2249C1915.018,-83.7471 1929.6589,-66.1628 1917.9703,-54 1902.4081,-37.8064 1193.4253,-21.836 1041.4557,-18.5952"/>
<polygon fill="#000000" stroke="#000000" points="1041.1846,-15.0887 1031.1127,-18.376 1041.0363,-22.0872 1041.1846,-15.0887"/>
<text text-anchor="middle" x="1932.0776" y="-58.2" font-family="Times,serif" font-size="14.00" fill="#000000">35e</text>
</g>
<!-- 5&#45;&gt;6 -->
<g id="edge42" class="edge">
<title>5-&gt;6</title>
<path fill="none" stroke="#000000" d="M1904.764,-100.2725C1927.3863,-90.5906 1962.9645,-71.6625 1945.9703,-54 1929.8842,-37.2812 1195.9785,-21.6662 1041.3715,-18.5588"/>
<polygon fill="#000000" stroke="#000000" points="1041.3267,-15.0573 1031.2588,-18.3569 1041.1869,-22.0559 1041.3267,-15.0573"/>
<text text-anchor="middle" x="1960.0776" y="-58.2" font-family="Times,serif" font-size="14.00" fill="#000000">41e</text>
</g>
<!-- 5&#45;&gt;6 -->
<g id="edge48" class="edge">
<title>5-&gt;6</title>
<path fill="none" stroke="#000000" d="M1905.7834,-103.0926C1937.2635,-95.8135 1997.3068,-78.227 1973.9703,-54 1957.3748,-36.7711 1199.8562,-21.53 1041.7163,-18.5328"/>
<polygon fill="#000000" stroke="#000000" points="1041.4486,-15.0272 1031.3845,-18.3383 1041.3168,-22.026 1041.4486,-15.0272"/>
<text text-anchor="middle" x="1989.0776" y="-58.2" font-family="Times,serif" font-size="14.00" fill="#000000">47e</text>
</g>
</g>
</svg>